<svg
  xmlns="http://www.w3.org/2000/svg"
  viewBox="0 0 600 600"
  width="600"
  height="600"
>
  <rect
    width="600"
    height="600"
    rx="36"
    fill="#2563eb"
  />

  <!-- Decorative background -->
  <circle
    cx="510"
    cy="80"
    r="165"
    fill="#bfdbfe"
    opacity="0.18"
  />

  <circle
    cx="70"
    cy="555"
    r="190"
    fill="#bfdbfe"
    opacity="0.12"
  />

  <!-- Brand label -->
  <text
    x="300"
    y="58"
    text-anchor="middle"
    fill="#bfdbfe"
    font-family="Arial, Helvetica, sans-serif"
    font-size="15"
    font-weight="700"
    letter-spacing="4"
  >
    BRAND
  </text>

  <!-- Brand name -->
  <text
    x="300"
    y="118"
    text-anchor="middle"
    fill="#ffffff"
    font-family="Arial, Helvetica, sans-serif"
    font-size="48"
    font-weight="700"
  >
    Roxie's Kitchen
  </text>

  <!-- Product icon -->
  <g
    transform="translate(180 165) scale(10)"
    fill="none"
    stroke="#ffffff"
    stroke-width="2"
    stroke-linecap="round"
    stroke-linejoin="round"
  >
    
  <path stroke="none" d="M0 0h24v24H0z" fill="none" />
  <path d="M15 3a3 3 0 0 1 3 3a3 3 0 1 1 -2.12 5.122l-4.758 4.758a3 3 0 1 1 -5.117 2.297l0 -.177l-.176 0a3 3 0 1 1 2.298 -5.115l4.758 -4.758a3 3 0 0 1 2.12 -5.122l-.005 -.005" />

  </g>

  <!-- Product type label -->
  <text
    x="300"
    y="448"
    text-anchor="middle"
    fill="#bfdbfe"
    font-family="Arial, Helvetica, sans-serif"
    font-size="15"
    font-weight="700"
    letter-spacing="4"
  >
    PRODUCT TYPE
  </text>

  <!-- Product type -->
  <text
    x="300"
    y="505"
    text-anchor="middle"
    fill="#ffffff"
    font-family="Arial, Helvetica, sans-serif"
    font-size="42"
    font-weight="700"
  >
    Training Treats
  </text>
</svg>